<svg width="322" height="514" viewBox="0 0 322 514" fill="none" xmlns="http://www.w3.org/2000/svg">
<g clip-path="url(#clip0)">
<path d="M177.999 256.637L314.502 392.132C323.937 401.497 323.993 416.697 314.627 426.032L292.111 448.715C282.746 458.15 267.546 458.207 258.212 448.841L161.455 352.799L65.413 449.556C56.0479 458.99 40.848 459.047 31.5132 449.681L8.62997 427.266C-0.804807 417.901 -0.861139 402.701 8.50433 393.366L143.999 256.863C153.364 247.328 168.564 247.272 177.999 256.637ZM143.287 64.7644L7.79239 201.267C-1.57271 210.702 -1.51638 225.902 7.91803 235.167L30.6016 257.683C40.0364 267.048 55.2363 266.992 64.5014 257.558L160.644 160.901L257.4 256.943C266.835 266.308 282.035 266.252 291.3 256.817L313.916 234.133C323.281 224.698 323.225 209.498 313.791 200.233L177.288 64.7383C167.852 55.2732 152.653 55.3296 143.287 64.7644Z" fill="#00C6B6"/>
</g>
<defs>
<clipPath id="clip0">
<rect x="321.948" y="512.405" width="320" height="512" transform="rotate(179.788 321.948 512.405)" fill="white"/>
</clipPath>
</defs>
</svg>
