<svg width="320" height="512" viewBox="0 0 320 512" fill="none" xmlns="http://www.w3.org/2000/svg">
<rect width="320" height="512" fill="#E5E5E5"/>
<g clip-path="url(#clip0)">
<path d="M143 256.3L7.00001 120.3C-2.39999 110.9 -2.39999 95.7 7.00001 86.4L29.6 63.8C39 54.4 54.2 54.4 63.5 63.8L159.9 160.2L256.3 63.8C265.7 54.4 280.9 54.4 290.2 63.8L313 86.3C322.4 95.7 322.4 110.9 313 120.2L177 256.2C167.6 265.7 152.4 265.7 143 256.3ZM177 448.3L313 312.3C322.4 302.9 322.4 287.7 313 278.4L290.4 255.8C281 246.4 265.8 246.4 256.5 255.8L160 352.1L63.6 255.7C54.2 246.3 39 246.3 29.7 255.7L7.00001 278.3C-2.39999 287.7 -2.39999 302.9 7.00001 312.2L143 448.2C152.4 457.7 167.6 457.7 177 448.3Z" fill="#00C6B6"/>
</g>
<defs>
<clipPath id="clip0">
<rect width="320" height="512" fill="white"/>
</clipPath>
</defs>
</svg>
